<?xml version="1.0" standalone="no"?>
<!DOCTYPE svg PUBLIC "-//W3C//DTD SVG 20010904//EN"
 "http://www.w3.org/TR/2001/REC-SVG-20010904/DTD/svg10.dtd">
<svg version="1.0" xmlns="http://www.w3.org/2000/svg"
 width="1440.000000pt" height="1440.000000pt" viewBox="0 0 1440.000000 1440.000000"
 preserveAspectRatio="xMidYMid meet">
<metadata>
Created by potrace 1.11, written by Peter Selinger 2001-2013
</metadata>
<g transform="translate(0.000000,1440.000000) scale(0.100000,-0.100000)"
fill="#000000" stroke="none">
<path d="M4049 13396 c-2 -2 -42 -7 -89 -11 -47 -4 -87 -8 -90 -10 -3 -2 -26
-6 -50 -10 -25 -3 -70 -10 -100 -16 -30 -6 -68 -13 -85 -15 -16 -3 -37 -7 -45
-10 -8 -4 -49 -14 -90 -24 -268 -65 -613 -214 -887 -381 -162 -99 -386 -267
-499 -374 -12 -11 -43 -41 -70 -66 -134 -127 -289 -303 -395 -449 -78 -107
-169 -246 -169 -258 0 -6 -3 -12 -7 -14 -17 -7 -152 -269 -216 -419 -116 -271
-205 -608 -244 -924 -5 -33 -8 -1486 -8 -3230 l0 -3170 23 -142 c34 -210 123
-554 171 -658 5 -11 24 -58 42 -105 47 -119 165 -355 244 -485 58 -96 198
-301 215 -315 3 -3 21 -25 40 -50 131 -170 329 -368 525 -525 294 -237 660
-438 1015 -558 81 -28 211 -66 242 -72 11 -2 28 -7 38 -10 34 -11 232 -50 295
-59 163 -22 177 -24 233 -25 32 -1 41 -4 36 -14 -6 -9 -4 -9 8 1 13 11 20 11
36 1 17 -10 24 -10 38 2 11 8 15 9 10 2 -6 -10 589 -13 2918 -13 2338 0 2926
2 2926 12 0 10 3 9 9 -1 7 -11 9 -11 14 0 4 10 6 10 6 2 1 -7 10 -13 22 -13
11 0 17 4 14 10 -4 6 16 10 52 11 32 1 67 3 78 4 11 2 47 6 80 10 33 3 67 8
75 10 8 2 35 7 60 10 72 10 265 54 374 86 188 56 380 132 571 229 331 166 598
361 865 629 308 309 522 619 707 1026 110 241 209 577 248 840 23 156 23 159
32 270 10 129 11 6039 0 6165 -4 52 -12 127 -18 165 -5 39 -12 88 -15 110 -3
22 -16 92 -30 155 -138 644 -451 1226 -903 1681 -103 104 -154 151 -257 239
-72 62 -169 134 -302 222 -391 261 -899 454 -1357 514 -27 3 -59 9 -70 12 -22
7 -6259 15 -6266 8z"/>
</g>
</svg>
